<?xml version="1.0" encoding="UTF-8" standalone="no"?>
<!-- Created with Inkscape (http://www.inkscape.org/) -->

<svg
   width="512"
   height="512"
   viewBox="0 0 512 512"
   version="1.1"
   id="svg1"
   xml:space="preserve"
   xmlns:xlink="http://www.w3.org/1999/xlink"
   xmlns="http://www.w3.org/2000/svg"
   xmlns:svg="http://www.w3.org/2000/svg"><defs
     id="defs1"><linearGradient
       id="linearGradient2795"><stop
         style="stop-color:#b8b8b8;stop-opacity:0.49803922;"
         offset="0"
         id="stop2797" /><stop
         style="stop-color:#7f7f7f;stop-opacity:0;"
         offset="1"
         id="stop2799" /></linearGradient><linearGradient
       id="linearGradient2787"><stop
         style="stop-color:#7f7f7f;stop-opacity:0.5;"
         offset="0"
         id="stop2789" /><stop
         style="stop-color:#7f7f7f;stop-opacity:0;"
         offset="1"
         id="stop2791" /></linearGradient><linearGradient
       id="linearGradient3676"><stop
         style="stop-color:#b2b2b2;stop-opacity:0.5;"
         offset="0"
         id="stop3678" /><stop
         style="stop-color:#b3b3b3;stop-opacity:0;"
         offset="1"
         id="stop3680" /></linearGradient><linearGradient
       id="linearGradient3236"><stop
         style="stop-color:#f4f4f4;stop-opacity:1"
         offset="0"
         id="stop3244" /><stop
         style="stop-color:white;stop-opacity:1"
         offset="1"
         id="stop3240" /></linearGradient><linearGradient
       id="linearGradient4671"><stop
         style="stop-color:#ffd43b;stop-opacity:1;"
         offset="0"
         id="stop4673" /><stop
         style="stop-color:#ffe873;stop-opacity:1"
         offset="1"
         id="stop4675" /></linearGradient><linearGradient
       id="linearGradient4689"><stop
         style="stop-color:#5a9fd4;stop-opacity:1;"
         offset="0"
         id="stop4691" /><stop
         style="stop-color:#306998;stop-opacity:1;"
         offset="1"
         id="stop4693" /></linearGradient><linearGradient
       x1="224.23996"
       y1="144.75717"
       x2="-65.308502"
       y2="144.75717"
       id="linearGradient2987"
       xlink:href="#linearGradient4671"
       gradientUnits="userSpaceOnUse"
       gradientTransform="translate(100.2702,99.61116)" /><linearGradient
       x1="172.94208"
       y1="77.475983"
       x2="26.670298"
       y2="76.313133"
       id="linearGradient2990"
       xlink:href="#linearGradient4689"
       gradientUnits="userSpaceOnUse"
       gradientTransform="translate(100.2702,99.61116)" /><linearGradient
       xlink:href="#linearGradient4671"
       id="linearGradient2255"
       gradientUnits="userSpaceOnUse"
       gradientTransform="matrix(0.562541,0,0,0.567972,-11.5974,-7.60954)"
       x1="224.23996"
       y1="144.75717"
       x2="-65.308502"
       y2="144.75717" /><linearGradient
       xlink:href="#linearGradient4689"
       id="linearGradient2258"
       gradientUnits="userSpaceOnUse"
       gradientTransform="matrix(0.562541,0,0,0.567972,-11.5974,-7.60954)"
       x1="172.94208"
       y1="76.176224"
       x2="26.670298"
       y2="76.313133" /><radialGradient
       xlink:href="#linearGradient2795"
       id="radialGradient2801"
       cx="61.518883"
       cy="132.28575"
       fx="61.518883"
       fy="132.28575"
       r="29.036913"
       gradientTransform="matrix(1,0,0,0.177966,0,108.7434)"
       gradientUnits="userSpaceOnUse" /><radialGradient
       xlink:href="#linearGradient2795"
       id="radialGradient2801-4"
       cx="61.518883"
       cy="132.28575"
       fx="61.518883"
       fy="132.28575"
       r="29.036913"
       gradientTransform="matrix(1,0,0,0.177966,0,108.7434)"
       gradientUnits="userSpaceOnUse" /></defs><g
     id="layer1"><path
       id="path3"
       style="fill:#5a9fd4;fill-opacity:1"
       d="M 54.918921 0.00093012614 C 50.335272 0.022228101 45.95799 0.41322682 42.106433 1.0947585 C 30.760229 3.0992603 28.700061 7.2948437 28.70006 15.032234 L 28.70006 25.251064 L 55.512341 25.251064 L 55.512341 28.657186 L 28.70006 28.657186 L 18.63749 28.657186 C 10.845039 28.657186 4.0215528 33.340956 1.8873139 42.25098 C -0.5745036 52.463936 -0.68369859 58.836919 1.8873139 69.500885 C 3.7932403 77.438729 8.3448626 83.094677 16.137311 83.094679 L 25.356257 83.094679 L 25.356257 70.844453 C 25.356257 61.994559 33.013586 54.188221 42.106433 54.188219 L 68.887555 54.188219 C 76.342499 54.188219 82.293931 48.050094 82.293928 40.563266 L 82.293928 15.032234 C 82.293928 7.7659023 76.163818 2.3074799 68.887555 1.0947585 C 64.281573 0.3280339 59.502569 -0.020368157 54.918921 0.00093012614 z M 40.418719 8.2195247 C 43.188264 8.2195247 45.450237 10.518169 45.450237 13.34452 C 45.450235 16.160853 43.188264 18.438356 40.418719 18.438356 C 37.639246 18.438355 35.387667 16.160852 35.387667 13.34452 C 35.387666 10.51817 37.639246 8.2195247 40.418719 8.2195247 z "
       transform="matrix(4.1996992,0,0,4.1996992,23.694943,20)" /><path
       id="path1"
       style="fill:#ffe873;fill-opacity:1"
       d="M 85.637732 28.657186 L 85.637732 40.563266 C 85.637732 49.794012 77.811651 57.563645 68.887555 57.563646 L 42.106433 57.563646 C 34.770608 57.563646 28.700061 63.84209 28.70006 71.188599 L 28.70006 96.719632 C 28.70006 103.98597 35.018778 108.25991 42.106433 110.34458 C 50.593756 112.84019 58.732552 113.29121 68.887555 110.34458 C 75.637703 108.3902 82.293931 104.45702 82.293928 96.719632 L 82.293928 86.500801 L 55.512341 86.500801 L 55.512341 83.094679 L 82.293928 83.094679 L 95.699836 83.094679 C 103.49229 83.094679 106.39622 77.659219 109.10621 69.500885 C 111.90554 61.102008 111.78643 53.025193 109.10621 42.25098 C 107.18043 34.493547 103.5022 28.657186 95.699836 28.657186 L 85.637732 28.657186 z M 70.574804 93.31351 C 73.354279 93.313513 75.606321 95.591018 75.606321 98.407345 C 75.606319 101.2337 73.354276 103.53234 70.574804 103.53234 C 67.805257 103.53234 65.543752 101.2337 65.543752 98.407345 C 65.543754 95.591018 67.805254 93.31351 70.574804 93.31351 z "
       transform="matrix(4.1996992,0,0,4.1996992,23.694943,20)" /></g></svg>
