<?xml version="1.0" encoding="UTF-8" standalone="no"?>
<!-- Created with Inkscape (http://www.inkscape.org/) -->

<svg
   width="512"
   height="512"
   viewBox="0 0 512 512"
   version="1.1"
   id="svg1"
   xml:space="preserve"
   xmlns="http://www.w3.org/2000/svg"
   xmlns:svg="http://www.w3.org/2000/svg"><defs
     id="defs1" /><g
     id="layer1"><g
       id="g1"
       transform="matrix(0.94556734,0,0,0.94556734,37.573942,96.522284)"><path
         fill="#41cd52"
         d="M 63.5,0 H 462 V 274.79 C 440.6,296.26 419.13,317.66 397.61,339 H 0 V 63.39 C 21.08,42.18 42.34,21.13 63.5,0 Z"
         id="path6" /><path
         id="path8"
         style="fill:#ffffff;fill-opacity:1"
         d="m 174.00078,58.949627 c -17.78996,-0.16 -36.50102,2.370811 -51.63098,12.380791 -12.88998,8.359982 -20.51994,22.589846 -25.129923,36.849812 -5.95999,18.95996 -7.219522,39.02985 -7.079522,58.78981 0.27,18.27998 1.849855,36.81936 7.729843,54.23932 3.589992,10.29998 8.839182,20.43131 17.199162,27.67129 10.87998,9.48998 25.25069,13.78909 39.35065,15.47907 11.76998,1.3 23.74931,1.44943 35.45929,-0.47055 8.65998,14.21996 17.25072,28.49093 25.8807,42.73091 10.13998,-4.65 20.23953,-9.34982 30.36951,-14.01982 -8.05998,-13.05996 -16.28039,-26.02102 -24.34037,-39.081 11.19998,-8.03998 19.69003,-19.61887 24.15003,-32.65885 6.65998,-19.16996 7.57127,-39.73081 7.54127,-59.85077 -0.24,-19.97996 -2.34049,-40.27888 -9.49047,-59.07884 -4.42,-11.449982 -11.04916,-22.521003 -21.24914,-29.690989 -14.03998,-10.10998 -31.82009,-13.080184 -48.76005,-13.290184 z m 120.1298,11.741043 c -0.03,14.019986 0.009,28.028881 -0.0212,42.04887 -7.38999,0.03 -14.7703,-0.009 -22.16029,0.0211 -0.02,9.09999 -0.02,18.19885 0,27.28884 7.38999,0.03 14.78087,0.001 22.17086,0.0212 0.01,22.66998 -0.009,45.33009 0.0106,68.00006 0.22,12.54999 0.63019,25.55989 5.68018,37.24988 2.82,6.87 9.29925,11.47869 16.24924,13.53868 16.49998,5.22 33.93008,1.88061 50.54006,-0.90939 -0.48,-8.35999 -0.97041,-16.72939 -1.48041,-25.08939 -8.34999,0.15 -16.69004,0.63971 -25.04003,0.66971 -4.43,-0.15 -9.86909,-1.30064 -11.88909,-5.78064 -2.77,-5.80999 -2.63032,-12.4495 -2.89032,-18.73949 -0.12,-22.97998 -0.0193,-45.95944 -0.0494,-68.93942 13.53999,-0.03 27.06901,0.009 40.609,-0.0212 0.26,-9.09999 0.5102,-18.19943 0.7402,-27.29942 -13.54998,-0.01 -27.09954,0.009 -40.64953,-0.0106 -0.03,-14.019989 0.009,-28.028884 -0.0212,-42.04887 -10.59998,-0.01 -21.19881,-0.01 -31.7988,0 z M 172.219,87.006878 c 6.53232,0.120215 13.03269,1.171081 19.12017,3.602325 7.89,3.119994 14.59149,9.230069 18.13147,16.970057 5.43,11.72998 7.50993,24.6802 8.55993,37.47018 1.14,17.01996 0.97886,34.19992 -1.37114,51.11988 -1.65,10.06998 -3.99933,20.68124 -10.81931,28.62122 -6.91998,7.96998 -17.58992,11.38869 -27.8299,12.18869 -10.79998,0.79 -22.18982,8.3e-4 -31.9398,-5.10917 -5.68998,-3.03 -10.52131,-7.78038 -13.34129,-13.60036 -3.42,-6.97 -5.29954,-14.57909 -6.61954,-22.19907 -3.98,-24.15996 -4.93948,-49.16153 0.50052,-73.18149 2.24,-9.05998 5.49996,-18.35986 12.11996,-25.189841 5.75998,-5.849988 13.77963,-8.869804 21.77961,-9.999802 3.85875,-0.502498 7.78994,-0.764748 11.70932,-0.692619 z" /></g></g></svg>
